<?xml version="1.0" encoding="utf-8"?>
<!-- Generator: Adobe Illustrator 21.0.0, SVG Export Plug-In . SVG Version: 6.00 Build 0)  -->
<!DOCTYPE svg PUBLIC "-//W3C//DTD SVG 1.1//EN" "http://www.w3.org/Graphics/SVG/1.1/DTD/svg11.dtd">
<svg version="1.1" id="Layer_1" xmlns="http://www.w3.org/2000/svg" xmlns:xlink="http://www.w3.org/1999/xlink" x="0px" y="0px"
	 viewBox="0 0 64 64" style="enable-background:new 0 0 64 64;" xml:space="preserve">
<g>
	<g>
		<path d="M32,33c7.2,0,13-5.8,13-13S39.2,7,32,7s-13,5.8-13,13S24.8,33,32,33z"/>
		<path d="M45.1,34.7c-0.4-0.2-0.8-0.2-1.2,0.1C40.5,37.5,36.4,39,32,39s-8.5-1.5-11.9-4.2c-0.3-0.3-0.8-0.3-1.2-0.1
			C11.5,39.3,7,47.3,7,56c0,0.6,0.4,1,1,1h48c0.6,0,1-0.4,1-1C57,47.3,52.5,39.3,45.1,34.7z"/>
	</g>
</g>
</svg>
